<svg xmlns="http://www.w3.org/2000/svg" width="340" viewBox="0 0 86 21" fill="none" height="84" preserveAspectRatio="xMinYMin meet"><g id="logo"><path id="Union" fill-rule="evenodd" clip-rule="evenodd" d="M21.745 4.944c.158-2.498-1.747-4.652-4.256-4.81-2.51-.158-4.672 1.74-4.83 4.238-.16 2.498 1.746 4.651 4.255 4.81 2.51.157 4.672-1.74 4.83-4.238Zm1.903 15.805a5.937 5.937 0 0 1-5.767-3.48c-2.116-4.433-4.86-5.422-9.336-3.363a3.71 3.71 0 0 0-.066.03l-.022.01a5.95 5.95 0 0 1-2.166.549C3.02 14.688.21 12.204.015 8.946c-.195-3.257 2.3-6.054 5.571-6.248A5.94 5.94 0 0 1 11.36 6.19c2.115 4.424 4.858 5.408 9.33 3.352l.066-.03.023-.01a5.944 5.944 0 0 1 2.166-.549c3.271-.193 6.08 2.291 6.275 5.548.195 3.257-2.3 6.055-5.572 6.248ZM13.595 14.52a2.914 2.914 0 0 1 1.752 3.74 2.934 2.934 0 0 1-3.756 1.744 2.914 2.914 0 0 1-1.752-3.74 2.934 2.934 0 0 1 3.756-1.744Z" fill="#ffffff"></path><path id="Vector" d="M43.505 20.536c-.638-.248-1.169-.543-1.588-.886a5.626 5.626 0 0 1-1-1.03v1.354c0 .28-.227.506-.507.506h-3.448a.506.506 0 0 1-.507-.506V.832c0-.28.227-.506.507-.506h3.621c.28 0 .507.227.507.506V7.76c.477-.553 1.095-1.015 1.858-1.388.762-.372 1.687-.557 2.773-.557 1.374 0 2.584.314 3.634.944 1.049.628 1.858 1.507 2.43 2.629.572 1.124.857 2.42.857 3.887 0 1.468-.29 2.858-.872 4.002-.582 1.144-1.398 2.034-2.445 2.672-1.05.638-2.26.957-3.633.957-.82 0-1.549-.124-2.187-.373v.003Zm2.774-3.588c.543-.333.957-.815 1.244-1.443.285-.628.429-1.363.429-2.2 0-.838-.144-1.597-.429-2.216-.285-.618-.696-1.095-1.23-1.428-.533-.334-1.163-.502-1.887-.502-.723 0-1.33.173-1.872.514-.543.34-.97.825-1.274 1.443-.304.618-.458 1.349-.458 2.186s.149 1.572.443 2.2c.295.628.716 1.11 1.26 1.444.542.333 1.176.499 1.901.499.726 0 1.33-.166 1.873-.5v.003Z" fill="#ffffff"></path><path id="Vector_2" d="M57.59 19.963a6.342 6.342 0 0 1-2.659-2.672c-.61-1.154-.915-2.493-.915-4.016 0-1.524.314-2.826.945-3.96.628-1.135 1.529-2.016 2.703-2.644 1.173-.628 2.54-.944 4.103-.944 1.717 0 3.175.362 4.376 1.085a6.362 6.362 0 0 1 2.63 3.03c.496 1.167.716 2.481.66 3.941a.51.51 0 0 1-.507.492H59.02a.509.509 0 0 0-.502.575c.061.503.185.949.375 1.34.258.534.629.945 1.116 1.23.487.285 1.054.428 1.702.428.837 0 1.502-.173 1.987-.513.411-.29.738-.677.979-1.157a.5.5 0 0 1 .448-.272h3.377c.351 0 .597.348.478.679a6.272 6.272 0 0 1-.989 1.75c-.601.762-1.424 1.383-2.474 1.857-1.05.477-2.299.716-3.745.716-1.622 0-3.013-.314-4.177-.945h-.005Zm6.821-9.889a2.663 2.663 0 0 0-1.1-1.03 3.403 3.403 0 0 0-1.544-.343c-.935 0-1.678.268-2.23.801-.473.455-.778 1.07-.916 1.845a.35.35 0 0 0 .345.411H64.5c.212 0 .377-.19.348-.399a3.395 3.395 0 0 0-.433-1.287l-.003.002Z" fill="#ffffff"></path><path id="Vector_3" d="M74.148 19.963a6.342 6.342 0 0 1-2.659-2.672c-.611-1.154-.916-2.493-.916-4.016 0-1.524.315-2.826.945-3.96.629-1.135 1.53-2.016 2.703-2.644 1.174-.628 2.54-.944 4.103-.944 1.717 0 3.176.362 4.376 1.085a6.362 6.362 0 0 1 2.63 3.03c.497 1.167.716 2.481.66 3.941a.51.51 0 0 1-.506.492h-9.906a.509.509 0 0 0-.502.575c.06.503.185.949.375 1.34a2.79 2.79 0 0 0 1.115 1.23c.487.285 1.055.428 1.702.428.838 0 1.503-.173 1.987-.513.412-.29.738-.677.98-1.157a.5.5 0 0 1 .448-.272h3.377c.35 0 .597.348.477.679a6.275 6.275 0 0 1-.988 1.75c-.602.762-1.425 1.383-2.474 1.857-1.05.477-2.3.716-3.746.716-1.621 0-3.012-.314-4.176-.945h-.005Zm6.821-9.889a2.663 2.663 0 0 0-1.1-1.03 3.403 3.403 0 0 0-1.545-.343c-.935 0-1.677.268-2.23.801-.473.455-.777 1.07-.916 1.845a.35.35 0 0 0 .346.411h5.533c.212 0 .377-.19.348-.399a3.397 3.397 0 0 0-.433-1.287l-.003.002Z" fill="#ffffff"></path></g></svg>