<svg width="160" height="30" viewBox="0 0 160 30" fill="none" xmlns="http://www.w3.org/2000/svg">
<mask id="mask0_276_82" style="mask-type:luminance" maskUnits="userSpaceOnUse" x="0" y="0" width="160" height="26">
<path d="M160 0.081646H0V25.5121H160V0.081646Z" fill="white"/>
</mask>
<g mask="url(#mask0_276_82)">
<path d="M40.1223 10.7403C40.7422 9.59163 41.6067 8.69325 42.7154 8.05157C43.8242 7.40986 45.0835 7.08901 46.4867 7.08901C48.2093 7.08901 49.6812 7.55747 50.9092 8.48791C52.1369 9.41838 52.9512 10.6889 53.3646 12.2996H49.4808C49.1927 11.6771 48.7793 11.2087 48.2531 10.8814C47.7208 10.5542 47.1194 10.3938 46.4426 10.3938C45.3527 10.3938 44.4757 10.7788 43.7992 11.5552C43.1227 12.3317 42.7845 13.3712 42.7845 14.6675C42.7845 15.9637 43.1227 17.0032 43.7992 17.7797C44.4757 18.5561 45.3527 18.9412 46.4426 18.9412C47.1194 18.9412 47.7208 18.7807 48.2531 18.4535C48.7854 18.1262 49.1927 17.6578 49.4808 17.0353H53.3646C52.9512 18.646 52.1305 19.9101 50.9092 20.8342C49.6812 21.7582 48.2093 22.2202 46.4867 22.2202C45.0835 22.2202 43.8242 21.8994 42.7154 21.2577C41.6067 20.616 40.7422 19.724 40.1223 18.5818C39.502 17.4396 39.1951 16.1369 39.1951 14.6675C39.1951 13.198 39.502 11.8889 40.1223 10.7403Z" fill="white"/>
<path d="M57.3236 21.5468C56.4217 21.0527 55.7138 20.3468 55.1937 19.4292C54.6802 18.5115 54.4171 17.4399 54.4171 16.2143C54.4171 14.9886 54.6802 13.9298 55.2001 13.0058C55.7263 12.0817 56.4402 11.3758 57.3488 10.8817C58.2571 10.3876 59.2779 10.1438 60.4055 10.1438C61.5331 10.1438 62.5543 10.3876 63.4626 10.8817C64.3709 11.3758 65.0851 12.0817 65.611 13.0058C66.1372 13.9298 66.3943 15.0015 66.3943 16.2143C66.3943 17.4271 66.1312 18.4987 65.5985 19.4227C65.0662 20.3468 64.3459 21.0527 63.4312 21.5468C62.5166 22.0409 61.4954 22.2847 60.3617 22.2847C59.228 22.2847 58.2194 22.0409 57.3175 21.5468H57.3236ZM62.0968 18.396C62.5731 17.8891 62.811 17.164 62.811 16.2143C62.811 15.2645 62.5792 14.5458 62.122 14.0325C61.6585 13.5256 61.0945 13.2689 60.418 13.2689C59.7415 13.2689 59.159 13.5191 58.7018 14.0197C58.2443 14.5202 58.0189 15.2517 58.0189 16.2078C58.0189 17.164 58.2443 17.8827 58.6893 18.3896C59.134 18.8966 59.6977 19.1532 60.3742 19.1532C61.0507 19.1532 61.6271 18.8966 62.0968 18.3896V18.396Z" fill="white"/>
<path d="M67.8346 12.9929C68.2793 12.0753 68.8932 11.3695 69.6637 10.8753C70.4342 10.3812 71.2922 10.1374 72.2446 10.1374C73.0024 10.1374 73.6916 10.2978 74.318 10.6251C74.9443 10.9523 75.4392 11.3887 75.7963 11.9341V6.45403H79.3294V22.1114H75.7963V20.4174C75.4644 20.9821 74.9945 21.4312 74.3806 21.7714C73.7668 22.1114 73.0526 22.2783 72.2446 22.2783C71.2922 22.2783 70.4342 22.028 69.6637 21.5275C68.8932 21.027 68.2857 20.3147 67.8346 19.3907C67.3899 18.4666 67.1642 17.4014 67.1642 16.1822C67.1642 14.9629 67.3899 13.9041 67.8346 12.9865V12.9929ZM75.0635 14.071C74.5747 13.5512 73.9797 13.2881 73.2783 13.2881C72.5765 13.2881 71.9815 13.5448 71.4927 14.0581C71.0042 14.5715 70.7599 15.2838 70.7599 16.1822C70.7599 17.0805 71.0042 17.7993 71.4927 18.3318C71.9815 18.858 72.5765 19.1275 73.2783 19.1275C73.9797 19.1275 74.5747 18.8645 75.0635 18.3447C75.552 17.8249 75.7963 17.1126 75.7963 16.2078C75.7963 15.303 75.552 14.5908 75.0635 14.071Z" fill="white"/>
<path d="M92.2843 17.0802H84.291C84.3475 17.8118 84.5793 18.3765 84.9802 18.7615C85.3872 19.1465 85.8885 19.3454 86.4774 19.3454C87.3605 19.3454 87.9743 18.9668 88.3189 18.2032H92.0774C91.8834 18.9797 91.5387 19.6791 91.0314 20.2952C90.5304 20.9176 89.8977 21.4053 89.1396 21.7582C88.3816 22.1112 87.536 22.2844 86.5964 22.2844C85.4688 22.2844 84.4601 22.0406 83.5831 21.5465C82.7001 21.0523 82.0108 20.3465 81.5159 19.4289C81.0213 18.5112 80.7707 17.4396 80.7707 16.214C80.7707 14.9883 81.0149 13.9167 81.5034 12.999C81.9923 12.0814 82.6748 11.3756 83.5582 10.8815C84.4415 10.3874 85.4499 10.1435 86.5964 10.1435C87.7425 10.1435 88.701 10.3809 89.5719 10.8622C90.4364 11.3435 91.119 12.0237 91.6078 12.9156C92.0963 13.8012 92.3405 14.8407 92.3405 16.0279C92.3405 16.368 92.3217 16.7209 92.2779 17.0867L92.2843 17.0802ZM88.7323 15.0718C88.7323 14.4493 88.5258 13.9552 88.1121 13.5894C87.6987 13.2236 87.1853 13.0376 86.565 13.0376C85.9448 13.0376 85.4752 13.2108 85.0679 13.5638C84.6606 13.9167 84.4102 14.4172 84.3162 15.0653H88.7387L88.7323 15.0718Z" fill="white"/>
<path d="M101.392 22.1177L98.3791 16.5092H97.5335V22.1177H94.0004V7.2624H99.9265C101.073 7.2624 102.044 7.46775 102.852 7.87841C103.66 8.2891 104.261 8.84739 104.662 9.55965C105.063 10.2719 105.264 11.0676 105.264 11.9403C105.264 12.9286 104.994 13.8077 104.449 14.5842C103.904 15.3606 103.102 15.9125 102.044 16.2333L105.389 22.1177H101.398H101.392ZM97.5274 13.9489H99.7197C100.365 13.9489 100.854 13.7885 101.173 13.4612C101.499 13.1339 101.662 12.6783 101.662 12.088C101.662 11.4976 101.499 11.0805 101.173 10.7532C100.847 10.426 100.365 10.2655 99.7197 10.2655H97.5274V13.9489Z" fill="white"/>
<path d="M107.024 12.9927C107.468 12.075 108.082 11.3692 108.853 10.8751C109.623 10.381 110.488 10.2077 111.433 10.2077H118.518V22.1112H114.985V20.4428C114.641 20.9946 114.165 21.4374 113.551 21.7775C112.937 22.1176 112.223 22.2844 111.415 22.2844C110.475 22.2844 109.623 22.0342 108.853 21.5337C108.082 21.0331 107.474 20.3209 107.024 19.3968C106.579 18.4727 106.353 17.4075 106.353 16.1883C106.353 14.9691 106.579 13.9103 107.024 12.9927ZM114.253 14.0707C113.764 13.5509 113.169 13.2879 112.467 13.2879C111.766 13.2879 111.171 13.5445 110.682 14.0579C110.193 14.5712 109.949 15.2835 109.949 16.1819C109.949 17.0803 110.193 17.799 110.682 18.3316C111.171 18.8578 111.766 19.1273 112.467 19.1273C113.169 19.1273 113.764 18.8642 114.253 18.3444C114.741 17.8246 114.985 17.1124 114.985 16.2076C114.985 15.3028 114.741 14.5905 114.253 14.0707Z" fill="white"/>
<path d="M125.628 10.6443C126.249 10.3042 126.956 10.1374 127.758 10.1374C128.71 10.1374 129.569 10.3812 130.339 10.8753C131.11 11.3695 131.717 12.0753 132.168 12.9929C132.613 13.9106 132.838 14.9758 132.838 16.1886C132.838 17.4014 132.613 18.473 132.168 19.3971C131.724 20.3211 131.11 21.0334 130.339 21.5339C129.569 22.0344 128.71 22.2847 127.758 22.2847C126.944 22.2847 126.236 22.1179 125.628 21.7906C125.021 21.4569 124.545 21.0206 124.2 20.4687V22.1179H120.667V6.45403H124.2V11.979C124.532 11.4272 125.008 10.9844 125.628 10.6443ZM128.51 14.0646C128.021 13.5512 127.42 13.2945 126.7 13.2945C125.979 13.2945 125.403 13.5576 124.914 14.0774C124.426 14.5972 124.181 15.3095 124.181 16.2143C124.181 17.1191 124.426 17.8313 124.914 18.3511C125.403 18.8709 125.998 19.134 126.7 19.134C127.401 19.134 128.002 18.8709 128.497 18.3383C128.992 17.8121 129.243 17.0934 129.243 16.1886C129.243 15.2838 128.999 14.5779 128.51 14.0646Z" fill="white"/>
<path d="M139.241 10.6443C139.861 10.3042 140.569 10.1373 141.37 10.1373C142.323 10.1373 143.181 10.3812 143.951 10.8753C144.722 11.3694 145.33 12.0753 145.78 12.9929C146.225 13.9105 146.451 14.9758 146.451 16.1886C146.451 17.4014 146.225 18.473 145.78 19.397C145.336 20.3211 144.722 21.0334 143.951 21.5339C143.181 22.0344 142.323 22.2847 141.37 22.2847C140.556 22.2847 139.848 22.1179 139.241 21.7906C138.633 21.4569 138.157 21.0206 137.812 20.4687V22.1179H134.28V6.45403H137.812V11.979C138.145 11.4272 138.621 10.9844 139.241 10.6443ZM142.122 14.0646C141.634 13.5512 141.032 13.2945 140.312 13.2945C139.592 13.2945 139.015 13.5576 138.527 14.0774C138.038 14.5971 137.794 15.3094 137.794 16.2142C137.794 17.119 138.038 17.8313 138.527 18.3511C139.015 18.8708 139.61 19.134 140.312 19.134C141.014 19.134 141.615 18.8708 142.11 18.3383C142.604 17.8121 142.855 17.0933 142.855 16.1886C142.855 15.2838 142.611 14.5779 142.122 14.0646Z" fill="white"/>
<path d="M148.155 8.5201C147.76 8.14792 147.566 7.68588 147.566 7.13403C147.566 6.58216 147.76 6.10089 148.155 5.72871C148.549 5.35653 149.05 5.17045 149.67 5.17045C150.291 5.17045 150.773 5.35653 151.168 5.72871C151.562 6.10089 151.756 6.56932 151.756 7.13403C151.756 7.69872 151.562 8.14792 151.168 8.5201C150.773 8.89227 150.278 9.07836 149.67 9.07836C149.063 9.07836 148.543 8.89227 148.155 8.5201ZM151.431 10.3104V22.1177H147.898V10.304H151.431V10.3104Z" fill="white"/>
<path d="M160 19.044V22.1113H158.202C156.925 22.1113 155.922 21.7905 155.208 21.1488C154.494 20.5071 154.137 19.4611 154.137 18.0044V13.3072H152.734V10.3041H154.137V7.42929H157.67V10.3041H159.982V13.3072H157.67V18.0494C157.67 18.4023 157.751 18.659 157.92 18.813C158.083 18.967 158.359 19.044 158.747 19.044H160.006H160Z" fill="white"/>
</g>
<path d="M14.3047 0.529802C22.2049 0.529808 28.6094 6.93426 28.6094 14.8345C28.6093 22.7347 22.2049 29.1392 14.3047 29.1392C6.40445 29.1392 2.76064e-05 22.7347 0 14.8345C0 6.93425 6.40443 0.529802 14.3047 0.529802ZM11.7002 4.38136C12.3199 8.95173 14.8788 7.76131 16.3857 10.9116C16.3857 10.9116 13.8429 7.36442 9.66211 8.67043C9.67971 8.70805 11.2122 11.9567 15.6934 12.6236C15.6934 12.6236 16.0541 13.8935 16.1631 14.1177C16.1182 14.0938 9.21513 10.4262 7.11426 17.5327C5.54571 17.1682 5.01956 18.9152 6.82227 20.1089C6.82818 20.085 7.13625 18.8552 7.87598 18.4878C7.87598 18.4878 6.27317 20.3228 8.1582 22.52H14.9238C15.0873 22.2422 15.8107 20.7801 14.0215 19.6734C15.2846 19.655 16.3128 22.0996 17.4189 22.5366H19.0273C19.0818 22.4009 19.1959 21.9942 18.9287 21.6284C18.5166 21.1438 17.6153 21.2093 17.623 20.313C17.9346 16.1407 24.0307 17.4213 23.8369 12.3999L23.748 12.2886C23.338 11.7931 21.5641 9.80541 19.4043 9.67629C17.812 9.57985 17.425 9.79783 17.3555 9.96047C17.2564 9.11613 16.5531 5.20946 11.7002 4.38136Z" fill="#FF570A"/>
</svg>
