<svg width="98" height="52" viewBox="0 0 98 52" fill="none" xmlns="http://www.w3.org/2000/svg">
<path d="M65.7843 20.6741L67.6834 7.05859C68.1662 3.61449 69.4537 1.9729 71.6425 1.9729C73.4772 1.9729 75.5372 3.19604 75.5372 5.64233C75.5372 6.47921 75.2797 7.47704 74.6681 8.6358L67.8765 21.2535C67.3293 22.2513 66.943 23.1204 66.943 23.7641C66.943 24.601 67.6512 25.1482 68.1984 25.1482C68.8743 25.1482 69.8078 24.4401 71.4493 23.1848L74.4106 20.8994C75.6338 19.966 76.7604 19.5797 77.726 19.5797C79.8504 19.5797 81.2667 21.4144 81.2667 23.2491C81.2667 25.0838 79.8826 26.9186 76.5029 26.9186H70.0975C66.589 26.9186 65.6555 25.7276 65.6555 22.4122C65.6555 21.8972 65.6877 21.3179 65.7843 20.6741Z" fill="#EDE1D0"/>
<path d="M50.2014 25.3414L48.8173 27.1117H48.7207V6.18956C48.7207 5.65309 48.5705 5.15954 48.2701 4.70891C47.9911 4.25828 47.5405 3.91494 46.9182 3.6789V3.58234C47.8409 3.4965 48.7315 3.27118 49.5898 2.90639C50.4482 2.54159 51.1563 2.03731 51.7142 1.39355H51.8108V11.9834C51.8108 12.2194 51.8 12.4448 51.7786 12.6593C51.7786 12.8739 51.7679 13.1529 51.7464 13.4962H51.7786C52.1648 13.0456 52.6906 12.5735 53.3558 12.08C54.0425 11.5649 54.815 11.125 55.6733 10.7602C56.5317 10.3955 57.4437 10.2131 58.4093 10.2131C59.5895 10.2131 60.6517 10.5349 61.5959 11.1787C62.5616 11.8224 63.3126 12.7023 63.8491 13.8181C64.407 14.9125 64.686 16.1571 64.686 17.5519C64.686 18.9253 64.4392 20.202 63.9456 21.3823C63.4521 22.541 62.7654 23.5711 61.8856 24.4723C61.0058 25.3521 59.9972 26.0388 58.8599 26.5323C57.7226 27.0259 56.5102 27.2727 55.2227 27.2727C54.0854 27.2727 53.0876 27.0903 52.2292 26.7255C51.3923 26.3392 50.7164 25.8779 50.2014 25.3414ZM61.3384 18.5819C61.2955 16.6077 60.8234 15.0627 59.9221 13.9469C59.0423 12.8095 57.8943 12.2409 56.478 12.2409C55.6411 12.2409 54.8257 12.4126 54.0317 12.7559C53.2378 13.0778 52.4975 13.4748 51.8108 13.9469V23.7964C51.8108 24.762 52.1434 25.4916 52.8086 25.9851C53.4738 26.4787 54.2678 26.7255 55.1905 26.7255C56.3707 26.7255 57.4222 26.3714 58.3449 25.6633C59.2891 24.9551 60.0294 23.9895 60.5659 22.7664C61.1024 21.5432 61.3599 20.1484 61.3384 18.5819Z" fill="#EDE1D0"/>
<path d="M44.2764 27.0795C42.5061 27.0795 41.9911 26.0173 41.9589 24.7942H41.9267C40.8323 26.2104 39.0298 27.2404 36.6801 27.2404C33.3647 27.2404 31.4978 25.0517 31.4978 22.541C31.4978 18.2922 34.7488 17.4231 38.0641 17.23C42.6348 16.9725 43.7292 16.6828 43.7292 14.5262C43.7292 12.4662 42.1198 11.9834 40.3173 11.9512C37.6135 11.919 36.0685 12.8524 35.6179 15.2987H33.0106C33.59 11.9834 36.1972 9.92334 40.5104 9.92334C43.7292 9.92334 46.7549 11.4362 45.9502 15.5884L44.4374 23.2813C44.212 24.5045 44.3408 25.277 45.8858 24.9873H45.9824L45.5961 26.8542C45.2742 26.9508 44.888 27.0795 44.2764 27.0795ZM34.105 22.3479C34.105 24.086 35.2316 25.2448 37.2273 25.2448C40.4461 25.2448 42.152 23.0238 42.6348 20.5775L43.0855 18.2922C42.0555 18.8716 40.7357 18.9681 37.9676 19.1935C36.6801 19.29 34.105 19.4832 34.105 22.3479Z" fill="#EDE1D0"/>
<path d="M15.218 23.3295V12.5621H17.0126V10.7675H18.8072V8.97295H24.1909V10.7675H20.6017V12.5621H18.8072V23.3295H20.6017V25.1241H24.1909V26.9186H18.8072V25.1241H17.0126V23.3295H15.218ZM25.9854 25.1241H24.1909V23.3295H25.9854V12.5621H24.1909V10.7675H25.9854V1.79468H29.5746V26.9186H25.9854V25.1241Z" fill="#EDE1D0"/>
<path d="M14.3566 7.17828H12.562V10.7674H10.7674V14.3566H8.97285V17.9457H7.17828V21.5348H5.38371V25.124H3.58914V28.7131H0V25.124H1.79457V21.5348H3.58914V17.9457H5.38371V14.3566H7.17828V10.7674H8.97285V7.17828H10.7674V3.58914H12.562V0H16.1511V3.58914H14.3566V7.17828Z" fill="#EDE1D0"/>
<path d="M80.5876 50.7095L85.2264 26.6753H87.9156L86.2012 35.7176H86.2685C87.613 34.0368 89.5627 32.9276 91.8821 32.9276C95.6805 32.9276 97.9999 35.8184 97.9999 40.121C97.9999 45.3649 95.1427 51.2138 89.2265 51.2138C86.6718 51.2138 84.8567 50.1045 83.8146 48.1549H83.7474L83.2768 50.7095H80.5876ZM84.655 43.7178C84.6214 46.6758 86.0332 48.9616 89.1257 48.9616C93.4283 48.9616 95.2435 44.1547 95.2435 40.2891C95.2435 37.6 94.2351 35.2133 91.1762 35.2133C86.9744 35.2133 84.6886 39.5832 84.655 43.7178Z" fill="#EDE1D0"/>
<path d="M74.2712 50.7097L74.7082 48.2894H74.641C73.2292 49.9701 71.3468 51.113 68.7921 51.113C65.3971 51.113 63.7836 48.9617 64.4559 45.4322L66.8089 33.3311H69.4644L67.1114 45.3986C66.6408 47.7852 67.3131 48.8609 69.4308 48.8609C72.5233 48.8609 75.1116 46.2726 75.7503 43.0456L77.6327 33.3311H80.3218L76.9604 50.7097H74.2712Z" fill="#EDE1D0"/>
<path d="M57.2175 50.7095L61.8563 26.6753H64.5455L59.9067 50.7095H57.2175Z" fill="#EDE1D0"/>
<path d="M48.1106 51.1802C43.8079 51.1802 40.8499 48.6256 40.8499 43.7179C40.8499 38.306 44.4802 32.894 50.1274 32.894C54.0267 32.894 56.2788 35.079 56.615 38.9446H53.8922C53.6569 36.6588 52.514 35.1126 49.993 35.1126C45.7912 35.1126 43.5726 39.5497 43.5726 43.7851C43.5726 46.6423 44.8163 48.9281 48.1442 48.9281C50.598 48.9281 52.514 47.3482 53.2199 44.5918H55.8082C54.8334 48.7936 51.8417 51.1802 48.1106 51.1802Z" fill="#EDE1D0"/>
<path d="M35.0815 50.7097L35.7202 47.3818H38.9472L38.3085 50.7097H35.0815Z" fill="#EDE1D0"/>
</svg>
