<?xml version="1.0" encoding="UTF-8"?> <svg xmlns="http://www.w3.org/2000/svg" id="a" width="146" height="32.07" viewBox="0 0 146 32.07"><path d="M143.66,21.81c-1.3,0-1.85-.3-1.85-2.15v-8.78h4.18v-3.62h-4.18V3.19h-4.18v4.07h-6.32v-1.98c0-1.62.9-1.84,1.86-1.84h2.22V0h-2.67c-3.86,0-5.59,1.62-5.59,5.24v2.02h-3.52v3.62h3.52v14.6h4.18v-14.6h6.32v9.64c0,1.92.46,3.22,1.41,4,.81.66,1.96.96,3.73.96h3.23v-3.67h-2.34ZM104.25,7h-1.38c-1.56.02-2.82.39-3.74,1.11-.43.36-.82.78-1.18,1.32v-2.16h-4.07v18.22h4.18v-10.28c0-3.3,2.33-4.02,4.29-4.04h1.91v-4.16h-.01ZM38.23,7h-1.37c-1.56.02-2.82.39-3.74,1.11-.43.36-.82.78-1.18,1.32v-2.16h-4.07v18.22h4.18v-10.28c0-3.3,2.33-4.02,4.29-4.04h1.91v-4.16h-.02ZM47.8,6.86c-5.24,0-9.51,4.27-9.51,9.51s4.27,9.51,9.51,9.51c3.73,0,7.14-2.2,8.67-5.6l.09-.2h-4.74l-.04.05c-1.01,1.17-2.46,1.85-3.98,1.85-2.43,0-4.58-1.75-5.19-4.18h14.6l.02-.12c.06-.43.09-.86.09-1.3,0-5.24-4.27-9.51-9.51-9.51h0ZM47.8,10.76c2.25,0,4.24,1.45,5.02,3.63h-10.04c.78-2.18,2.78-3.63,5.02-3.63M87.97,18.7l-.04.08c-.88,1.94-2.77,3.19-4.82,3.19-2.94,0-5.34-2.51-5.34-5.6s2.4-5.6,5.34-5.6c2.05,0,3.89,1.2,4.8,3.14l.04.08h4.38l-.05-.18c-1.14-4.09-4.91-6.95-9.16-6.95-5.25,0-9.51,4.27-9.51,9.51s4.27,9.51,9.51,9.51c4.28,0,8.05-2.88,9.18-7l.05-.18h-4.38ZM113.94,6.86c-5.31,0-9.63,4.27-9.63,9.51s4.32,9.51,9.63,9.51,9.63-4.27,9.63-9.51-4.32-9.51-9.63-9.51M119.28,16.37c0,3.08-2.4,5.58-5.34,5.58s-5.34-2.5-5.34-5.58,2.4-5.58,5.34-5.58,5.34,2.5,5.34,5.58" fill="#1f3822"></path><path d="M69.98,7.27l-4.3,11.7-4.66-11.7h-4.79l7.24,16.79-3.33,8.01h4.65l9.77-24.8h-4.58ZM14.1,12.07v3.68h6.68c-1.09,3.45-4.27,5.96-8.01,5.96-4.64,0-8.42-3.85-8.42-8.59s3.78-8.59,8.42-8.59c2.96,0,5.57,1.57,7.07,3.93h4.81C22.78,3.72,18.16.35,12.76.35,5.73.35,0,6.08,0,13.12s5.73,12.76,12.76,12.76c3.75,0,6.92-1.66,9-4.42v4.02h3.79v-13.41h-11.45Z" fill="#1f3822"></path></svg> 