<svg width="20" height="20" viewBox="0 0 20 20" fill="none" xmlns="http://www.w3.org/2000/svg">
<path d="M2.85293 6.42889C2.85293 4.87056 2.0596 3.58139 0.586265 2.5H4.0146C5.21877 3.42556 5.95543 4.84222 5.95543 6.42889C5.95543 8.01556 5.21877 9.4275 4.0146 10.3578C5.12904 10.8206 5.76182 11.9539 5.76182 13.5783V16.6667H2.6546V13.5783C2.6546 12.0342 1.91793 10.9528 0.581543 10.3578C2.05488 9.27639 2.84821 7.98722 2.84821 6.42889H2.85293ZM9.5821 6.42889C9.5821 4.87056 8.79349 3.58139 7.31543 2.5H10.7438C11.9479 3.42556 12.6846 4.84222 12.6846 6.42889C12.6846 8.01556 11.9479 9.4275 10.7438 10.3578C11.8582 10.8206 12.491 11.9539 12.491 13.5783V16.6667H9.38377V13.5783C9.38377 12.0342 8.6471 10.9528 7.31071 10.3578C8.78404 9.27639 9.57738 7.98722 9.57738 6.42889H9.5821ZM16.316 6.42889C16.316 4.87056 15.5274 3.58139 14.0493 2.5H17.4777C18.6818 3.42556 19.4185 4.84222 19.4185 6.42889C19.4185 8.01556 18.6818 9.4275 17.4777 10.3578C18.5921 10.8206 19.2249 11.9539 19.2249 13.5783V16.6667H16.1177V13.5783C16.1177 12.0342 15.381 10.9528 14.0446 10.3578C15.5179 9.27639 16.3113 7.98722 16.3113 6.42889H16.316Z" fill="black"/>
</svg>
